{
  "title": "CHORABALI (2016) - 1080p - Web.HD.Rip x264.AAC.Esubs -[DDR]",
  "uid": 16027647,
  "size": 3760026910,
  "categoryP": "video",
  "categoryS": "hd___movies",
  "magnet": "?xt=urn:btih:467a3171341079c54787afdf369e14a81c5ddd1a&amp;dn=CHORABALI+%282016%29+-+1080p+-+Web.HD.Rip+x264.AAC.Esubs+-%5BDDR%5D&amp;tr=udp%3A%2F%2Ftracker.leechers-paradise.org%3A6969&amp;tr=udp%3A%2F%2Fzer0day.ch%3A1337&amp;tr=udp%3A%2F%2Fopen.demonii.com%3A1337&amp;tr=udp%3A%2F%2Ftracker.coppersurfer.tk%3A6969&amp;tr=udp%3A%2F%2Fexodus.desync.com%3A6969",
  "seeders": 58,
  "leechers": 101,
  "uploader": "SaM",
  "files": 1,
  "time": 1476400993,
  "description": "Presenting a DDR WebHD Rip\r\n\r\n\r\nChorabali-(2016)\r\n(A film by Subhrajit Mitra)\r\n\r\nBangla - WebHD.Rip - 1080p - 1920x820 (2.35:1)- 3.5 GB- x.264.AAC.Esubs - 2 Ch - 1 Hrs:48 Min\r\n \nhttps://extraimago.com/image/w4UZ \nhttps://extraimago.com/image/w4UK \nhttps://extraimago.com/image/w4UJ \nhttps://extraimago.com/image/w4U0 \nhttps://extraimago.com/image/w4Uz \nhttps://extraimago.com/image/w4UU \nhttps://extraimago.com/image/w4UM \nhttps://extraimago.com/image/w4U9 \nhttps://extraimago.com/image/w4U3 \nhttps://extraimago.com/image/w4Ub \nhttps://extraimago.com/image/w4Uh \nhttps://extraimago.com/image/w4Ud \nhttps://extraimago.com/image/w4UQ\r\n\r\nTech Specifications:\r\n\r\nGeneral\r\nFormat: Matroska\r\nFormat version: Version 4 / Version 2\r\nFile size: 3.5 GiB\r\nDuration: 1 h 48 min\r\nOverall bit rate mode: Variable\r\nOverall bit rate: 4628 kb/s\r\n\r\nVideo\r\nFormat: AVC\r\nFormat Profile:   \r\nCodec ID: V_MPEG4/ISO/AVC\r\nDuration: 1 h 48 min\r\nBit rate mode: Variable\r\nBit rate: 4483 kb/s\r\nMaximum bit rate: 62.5 Mb/s\r\nWidth: 1920 pixels\r\nHeight: 820 pixels\r\nDisplay aspect ratio: 2.35:1\r\nFrame rate mode: Constant\r\nFrame rate: 23.976 FPS\r\nColor space: YUV\r\nChroma subsampling: 4:2:0\r\nBit depth: 8 bits\r\nScan type: Progressive\r\nBits/(Pixel*Frame): 0.119\r\nStream size: 3.40 GiB (91%)\r\nWriting library: x264 core 148 r2721 72d53ab\r\nColor Primaries: BT.709\r\n\r\nAudio\r\nFormat: AAC (HE-AAC / LC)\r\nDuration: 1 h 48 min\r\nBit rate: 139 kb/s\r\nChannel(s): 2 channels\r\nChannel positions: Front: L, R\r\nSampling rate: 48.0 kHz / 24.0 kHz\r\nFrame rate: 23.438 FPS (1024 spf)\r\nCompression mode: Lossy\r\nDelay relative to video: 31 ms\r\nStream size: 108 MiB (6%)\r\nLanguage: Bengali\r\nDefault: Yes\r\nForced : No\r\n\r\nChapters &amp; Subtitles\r\nChapters: None\r\nSubtitles: Hardcoded, English\r\n\r\nStarring\r\nBarun Chanda, June Malia, Tonusree, Shataf Figar, Sayani Datta, Malobika, Locket Chatterrjee, Dipanjan Basak, Tathagata, Mou Baidya\r\n\r\nRipped By: Udbuddho\r\n\r\n\r\nUploader's Notes:\r\n\r\nA middling to poor quality WebHD. It had an yellow tint, which has been reduced. The original sound has been preserved and it is in sync.\r\n\r\nEnjoy!\r\n\r\nIMDB Link: \nhttp://www.imdb.com/title/tt5354262/",
  "parsed": {
    "xt": "urn:btih:467a3171341079c54787afdf369e14a81c5ddd1a",
    "dn": "CHORABALI (2016) - 1080p - Web.HD.Rip x264.AAC.Esubs -[DDR]",
    "tr": [
      "udp://exodus.desync.com:6969",
      "udp://open.demonii.com:1337",
      "udp://tracker.coppersurfer.tk:6969",
      "udp://tracker.leechers-paradise.org:6969",
      "udp://zer0day.ch:1337"
    ],
    "infoHash": "467a3171341079c54787afdf369e14a81c5ddd1a",
    "infoHashBuffer": {
      "type": "Buffer",
      "data": [
        70,
        122,
        49,
        113,
        52,
        16,
        121,
        197,
        71,
        135,
        175,
        223,
        54,
        158,
        20,
        168,
        28,
        93,
        221,
        26
      ]
    },
    "name": "CHORABALI (2016) - 1080p - Web.HD.Rip x264.AAC.Esubs -[DDR]",
    "announce": [
      "udp://exodus.desync.com:6969",
      "udp://open.demonii.com:1337",
      "udp://tracker.coppersurfer.tk:6969",
      "udp://tracker.leechers-paradise.org:6969",
      "udp://zer0day.ch:1337"
    ],
    "urlList": []
  },
  "previous": 27,
  "peers": 33,
  "last_updated": "2016-12-26T23:00:03.971Z"
}